<svg xmlns="http://www.w3.org/2000/svg" viewBox="0 0 432 225"><defs><style>.a{fill:#00adee;}.b{fill:#ec297b;}.c{fill:#37b34a;}.d{fill:#f6921e;}</style></defs><title>cntrlr-col</title><path d="M72,9c9-9,63-9,72-9s36,9,72,9,63-9,72-9,63,0,72,9,72,126,72,144-54,72-72,72-45-72-72-72H144c-27,0-54,72-72,72S0,171,0,153,63,18,72,9Z"/><path class="a" d="M296.29,81.25l-4.77-4.78a.19.19,0,0,0-.28,0L277.75,90V56a.2.2,0,0,0-.12-.18h-.08a.18.18,0,0,0-.13.06L252.06,81.25a.16.16,0,0,0-.06.13.2.2,0,0,0,.06.14l4.78,4.78a.15.15,0,0,0,.13,0,.19.19,0,0,0,.14,0L270.6,72.8v34a.19.19,0,0,0,.12.17l.08,0a.18.18,0,0,0,.13-.06l25.36-25.36A.18.18,0,0,0,296.29,81.25Z"/><path class="b" d="M309.2,33.94l-4.78-4.78a.2.2,0,0,0-.14-.06.18.18,0,0,0-.13.06l-22,22a.2.2,0,0,0,0,.27l4.78,4.78a.2.2,0,0,0,.14.06.16.16,0,0,0,.13-.06l22-22A.2.2,0,0,0,309.2,33.94Z"/><path class="b" d="M326.4,51.14l-4.78-4.78a.16.16,0,0,0-.13-.06.2.2,0,0,0-.14.06l-22,22a.19.19,0,0,0,0,.28l4.78,4.77a.18.18,0,0,0,.13.06.2.2,0,0,0,.14-.06l22-22A.18.18,0,0,0,326.4,51.14Z"/><path class="b" d="M317.8,42.54,313,37.76a.18.18,0,0,0-.13-.06.2.2,0,0,0-.14.06l-22,22a.18.18,0,0,0,0,.27l4.78,4.78a.16.16,0,0,0,.13.06.2.2,0,0,0,.14-.06l22-22A.18.18,0,0,0,317.8,42.54Z"/><path class="c" d="M322.72,110.07h-17V88.28a.19.19,0,0,0-.11-.18h-.08a.19.19,0,0,0-.13,0L280,113.51a.2.2,0,0,0,0,.27l4.78,4.78a.24.24,0,0,0,.14,0,.19.19,0,0,0,.13,0l13.5-13.5v29.17a.2.2,0,0,0,.19.19h6.76a.19.19,0,0,0,.19-.19v-17h17a.19.19,0,0,0,.19-.19v-6.76A.2.2,0,0,0,322.72,110.07Z"/><path class="d" d="M356.51,81.25l-22-22a.24.24,0,0,0-.14,0,.19.19,0,0,0-.13,0l-22,22a.19.19,0,0,0,0,.13.24.24,0,0,0,0,.14l22,22a.16.16,0,0,0,.13.06.2.2,0,0,0,.14-.06l22-22A.18.18,0,0,0,356.51,81.25ZM334.39,93.54,322.24,81.38l12.15-12.15,12.16,12.15Z"/></svg>