<svg xmlns="http://www.w3.org/2000/svg" viewBox="0 0 432 225"><defs><style>.a{fill:#fff;}</style></defs><title>cntrlr-wht</title><rect class="a" x="325.8" y="72.79" width="17.19" height="17.19" transform="translate(40.39 260.29) rotate(-45)"/><path class="a" d="M360,9c-9-9-63-9-72-9s-36,9-72,9-63-9-72-9S81,0,72,9,0,135,0,153s54,72,72,72,45-72,72-72H288c27,0,54,72,72,72s72-54,72-72S369,18,360,9ZM321.49,46.3a.16.16,0,0,1,.13.06l4.78,4.78a.18.18,0,0,1,0,.27l-22,22a.2.2,0,0,1-.14.06.18.18,0,0,1-.13-.06l-4.78-4.77a.19.19,0,0,1,0-.28l22-22A.2.2,0,0,1,321.49,46.3Zm-8.6-8.6a.18.18,0,0,1,.13.06l4.78,4.78a.18.18,0,0,1,0,.27l-22,22a.2.2,0,0,1-.14.06.16.16,0,0,1-.13-.06L290.77,60a.18.18,0,0,1,0-.27l22-22A.2.2,0,0,1,312.89,37.7ZM282.16,51.14l22-22a.18.18,0,0,1,.13-.06.2.2,0,0,1,.14.06l4.78,4.78a.2.2,0,0,1,0,.27l-22,22a.16.16,0,0,1-.13.06.2.2,0,0,1-.14-.06l-4.78-4.78A.2.2,0,0,1,282.16,51.14Zm-11.36,55.8-.08,0a.19.19,0,0,1-.12-.17V72.8L257.11,86.3a.19.19,0,0,1-.14,0,.15.15,0,0,1-.13,0l-4.78-4.78a.2.2,0,0,1-.06-.14.16.16,0,0,1,.06-.13l25.36-25.36a.18.18,0,0,1,.13-.06h.08a.2.2,0,0,1,.12.18V90l13.49-13.5a.19.19,0,0,1,.28,0l4.77,4.78a.18.18,0,0,1,0,.27l-25.36,25.36A.18.18,0,0,1,270.8,106.94ZM322.91,117a.19.19,0,0,1-.19.19h-17v17a.19.19,0,0,1-.19.19h-6.76a.2.2,0,0,1-.19-.19V105.06l-13.5,13.5a.19.19,0,0,1-.13,0,.24.24,0,0,1-.14,0L280,113.78a.2.2,0,0,1,0-.27l25.37-25.37a.19.19,0,0,1,.13,0h.08a.19.19,0,0,1,.11.18v21.79h17a.2.2,0,0,1,.19.19Zm33.6-35.5-22,22a.2.2,0,0,1-.14.06.16.16,0,0,1-.13-.06l-22-22a.24.24,0,0,1,0-.14.19.19,0,0,1,0-.13l22-22a.19.19,0,0,1,.13,0,.24.24,0,0,1,.14,0l22,22A.18.18,0,0,1,356.51,81.52Z"/></svg>