<?xml version="1.0" encoding="UTF-8" standalone="no"?>
<!DOCTYPE svg PUBLIC "-//W3C//DTD SVG 1.1//EN" "http://www.w3.org/Graphics/SVG/1.1/DTD/svg11.dtd">
<svg width="100%" height="100%" viewBox="0 0 6859 1025" version="1.1" xmlns="http://www.w3.org/2000/svg" xmlns:xlink="http://www.w3.org/1999/xlink" xml:space="preserve" xmlns:serif="http://www.serif.com/" style="fill-rule:evenodd;clip-rule:evenodd;stroke-linejoin:round;stroke-miterlimit:2;">
    <g transform="matrix(1,0,0,1,-12283.2,-8027.09)">
        <g transform="matrix(1,0,0,1,-4573.98,1525.87)">
            <path d="M16869.2,7525.22L17869.2,7525.22L17369.2,7025.24L16869.2,7525.22ZM16857.2,7513.2L17096.9,7273.47L16857.2,7033.73L16857.2,7513.2ZM17381.2,7013.22L17881.2,7513.2L17881.2,6513.23L17381.2,7013.22ZM17357.2,7013.22L17108.9,7261.45L16860.7,7013.22L17108.9,6764.99L17357.2,7013.22ZM17129.4,6761.47L17608.9,6761.47L17369.2,7001.2L17129.4,6761.47ZM16857.2,6501.22L16857.2,6992.71L17348.7,6501.22L16857.2,6501.22ZM17372.7,6501.22L17129.4,6744.47L17625.9,6744.47L17869.2,6501.22L17372.7,6501.22Z" style="fill:white;fill-rule:nonzero;"/>
        </g>
        <g transform="matrix(3.1511,0,0,3.1511,12844.6,-10775.3)">
            <path d="M461.415,6238.37C493.685,6238.37 525.393,6228.83 543.072,6208.9L543.072,6114.34L460.574,6114.34L460.574,6156.15L499.578,6156.15L499.578,6185.61C491.16,6192.35 476.568,6195.15 460.854,6195.15C421.85,6195.15 397.999,6169.34 397.999,6135.39C397.999,6103.12 421.85,6075.62 458.048,6075.62C480.777,6075.62 497.052,6084.88 508.277,6096.94L539.704,6066.36C520.623,6045.31 493.404,6032.4 458.048,6032.4C396.315,6032.4 353.102,6078.7 353.102,6135.39C353.102,6193.75 399.402,6238.37 461.415,6238.37Z" style="fill:white;fill-rule:nonzero;"/>
            <path d="M588.249,6235L634.83,6235L652.508,6192.91L735.006,6192.91L752.684,6235L799.264,6235L713.96,6035.77L673.553,6035.77L588.249,6235ZM668.783,6154.19L693.757,6094.14L718.731,6154.19L668.783,6154.19Z" style="fill:white;fill-rule:nonzero;"/>
            <path d="M959.49,6192.63L1017.58,6112.1L1017.58,6235L1062.47,6235L1062.47,6035.77L1021.78,6035.77L959.49,6121.64L897.196,6035.77L856.508,6035.77L856.508,6235L901.124,6235L901.124,6112.1L959.49,6192.63Z" style="fill:white;fill-rule:nonzero;"/>
            <path d="M1141.04,6235L1267.31,6235L1267.31,6192.35L1185.66,6192.35L1185.66,6156.71L1250.48,6156.71L1250.48,6114.06L1185.66,6114.06L1185.66,6078.42L1267.31,6078.42L1267.31,6035.77L1141.04,6035.77L1141.04,6235Z" style="fill:white;fill-rule:nonzero;"/>
            <path d="M1337.75,6235L1405.65,6235C1461.77,6235 1507.23,6190.66 1507.23,6135.39C1507.23,6080.11 1461.77,6035.77 1405.65,6035.77L1337.75,6035.77L1337.75,6235ZM1382.36,6194.03L1382.36,6076.74L1405.65,6076.74C1439.33,6076.74 1462.05,6103.4 1462.05,6135.39C1462.05,6167.37 1439.33,6194.03 1405.65,6194.03L1382.36,6194.03Z" style="fill:white;fill-rule:nonzero;"/>
            <path d="M1544.27,6235L1590.85,6235L1608.53,6192.91L1691.03,6192.91L1708.71,6235L1755.29,6235L1669.98,6035.77L1629.58,6035.77L1544.27,6235ZM1624.81,6154.19L1649.78,6094.14L1674.75,6154.19L1624.81,6154.19Z" style="fill:white;fill-rule:nonzero;"/>
            <path d="M1895.31,6238.37C1951.99,6238.37 1998.29,6192.07 1998.29,6135.39C1998.29,6078.7 1951.99,6032.4 1895.31,6032.4C1838.35,6032.4 1792.33,6078.7 1792.33,6135.39C1792.33,6192.07 1838.35,6238.37 1895.31,6238.37ZM1895.31,6195.15C1862.76,6195.15 1837.22,6167.65 1837.22,6135.39C1837.22,6103.12 1862.76,6075.62 1895.31,6075.62C1927.58,6075.62 1953.11,6103.12 1953.11,6135.39C1953.11,6167.65 1927.58,6195.15 1895.31,6195.15Z" style="fill:white;fill-rule:nonzero;"/>
        </g>
    </g>
</svg>
