<svg xmlns="http://www.w3.org/2000/svg" viewBox="0 0 266.57 268.48"><defs><style>.a{fill:#fff;}</style></defs><title>z-ctrl</title><path class="a" d="M112.92,132.94l-12.18-12.18a.49.49,0,0,0-.35-.15.52.52,0,0,0-.35.14L65.63,155.17V68.63a.48.48,0,0,0-.3-.45.39.39,0,0,0-.18,0,.5.5,0,0,0-.35.14L.14,132.94a.48.48,0,0,0-.14.34.5.5,0,0,0,.14.35l12.19,12.18a.45.45,0,0,0,.34.14.47.47,0,0,0,.35-.14L47.43,111.4v86.54a.48.48,0,0,0,.3.45.41.41,0,0,0,.19,0,.49.49,0,0,0,.34-.14l64.66-64.66A.49.49,0,0,0,112.92,132.94Z"/><path class="a" d="M145.81,12.33,133.63.14a.52.52,0,0,0-.35-.14.49.49,0,0,0-.34.14l-56,56.05a.49.49,0,0,0,0,.69L89.08,69.06a.49.49,0,0,0,.34.14.52.52,0,0,0,.35-.14l56-56A.49.49,0,0,0,145.81,12.33Z"/><path class="a" d="M189.67,56.19,177.49,44a.52.52,0,0,0-.35-.14.49.49,0,0,0-.34.14l-56,56a.47.47,0,0,0,0,.69l12.18,12.19a.49.49,0,0,0,.34.14.52.52,0,0,0,.35-.14l56-56A.49.49,0,0,0,189.67,56.19Z"/><path class="a" d="M167.74,34.26,155.56,22.07a.52.52,0,0,0-.35-.14.49.49,0,0,0-.34.14l-56,56.05a.49.49,0,0,0,0,.69L111,91a.49.49,0,0,0,.34.14.52.52,0,0,0,.35-.14l56-56A.49.49,0,0,0,167.74,34.26Z"/><path class="a" d="M180.27,206.42H136.9V150.86a.48.48,0,0,0-.3-.45.58.58,0,0,0-.18,0,.47.47,0,0,0-.35.15L71.41,215.17a.49.49,0,0,0,0,.69L83.6,228.05a.48.48,0,0,0,.34.14.5.5,0,0,0,.35-.14l34.41-34.41V268a.49.49,0,0,0,.49.49h17.23a.48.48,0,0,0,.48-.49V224.62h43.37a.49.49,0,0,0,.49-.49V206.9A.48.48,0,0,0,180.27,206.42Z"/><path class="a" d="M266.42,132.94l-56-56a.46.46,0,0,0-.34-.15.49.49,0,0,0-.35.15l-56,56a.48.48,0,0,0-.14.34.5.5,0,0,0,.14.35l56,56a.47.47,0,0,0,.35.14.45.45,0,0,0,.34-.14l56-56A.49.49,0,0,0,266.42,132.94ZM210,164.27l-31-31,31-31,31,31Z"/></svg>