<svg xmlns="http://www.w3.org/2000/svg" viewBox="0 0 485.28 97.28"><defs><style>.a{fill:#00adee;}.b{fill:#ec297b;}.c{fill:#37b34a;}.d{fill:#f6921e;}</style></defs><title>z-h-col</title><path class="a" d="M121.38.35a.58.58,0,0,0-.53-.35H14.71a.57.57,0,0,0-.57.57v20a.57.57,0,0,0,.57.56H71.2l-71,71a.56.56,0,0,0-.13.61.56.56,0,0,0,.53.35H106.71a.57.57,0,0,0,.57-.56v-20a.57.57,0,0,0-.57-.57H50.22l71-71A.57.57,0,0,0,121.38.35Z"/><rect class="b" x="140.14" width="93.13" height="21.13" rx="0.57"/><rect class="b" x="140.14" y="72" width="93.13" height="21.13" rx="0.57"/><rect class="b" x="140.14" y="36" width="93.13" height="21.13" rx="0.57"/><path class="c" d="M364.38.35a.58.58,0,0,0-.53-.35H257.71a.57.57,0,0,0-.57.57v20a.57.57,0,0,0,.57.56H314.2l-61,61a.54.54,0,0,0-.17.4.56.56,0,0,0,.17.4l14.14,14.14a.56.56,0,0,0,.4.17.58.58,0,0,0,.4-.17l35.6-35.6,35.6,35.6a.56.56,0,0,0,.4.17.58.58,0,0,0,.4-.17L354.25,83a.56.56,0,0,0,.17-.4.54.54,0,0,0-.17-.4l-35.6-35.6L364.25,1A.57.57,0,0,0,364.38.35Z"/><path class="d" d="M484.71,0h-92a.57.57,0,0,0-.57.57v92a.57.57,0,0,0,.57.56h92a.57.57,0,0,0,.57-.56V.57A.57.57,0,0,0,484.71,0ZM413.28,72V21.13h50.86V72Z"/></svg>