<svg xmlns="http://www.w3.org/2000/svg" viewBox="0 0 357.67 105.67"><defs><style>.a{fill:#ffffff;}</style></defs><title>zero_plain</title><path class="a" d="M241.83,69.93a2.83,2.83,0,0,0-2,.83l-7.07,7.07a2.83,2.83,0,0,0,0,4l23,23a2.83,2.83,0,0,0,2,.83h97.07a2.84,2.84,0,0,0,2.84-2.84v-82A2.84,2.84,0,0,0,354.83,18h-82A2.83,2.83,0,0,0,270,20.83v64a2.84,2.84,0,0,0,2.83,2.84h10a2.84,2.84,0,0,0,2.84-2.84V33.67H342V90H263.08L243.84,70.76A2.84,2.84,0,0,0,241.83,69.93ZM1.57,74.21A2.83,2.83,0,0,0,0,76.74v26.09a2.84,2.84,0,0,0,2.83,2.84h172a2.84,2.84,0,0,0,2.84-2.84v-10A2.84,2.84,0,0,0,174.83,90H15.67V84.68L86.1,49.46a2.84,2.84,0,0,0,1.57-2.54V20.83A2.84,2.84,0,0,0,84.83,18h-82A2.83,2.83,0,0,0,0,20.83v28a2.84,2.84,0,0,0,2.83,2.84h10a2.84,2.84,0,0,0,2.84-2.84V33.67H72V39Zm178.29.85a2.84,2.84,0,0,0-1.27,3.81l4.47,8.94a2.87,2.87,0,0,0,1.64,1.42,2.79,2.79,0,0,0,.9.15,2.85,2.85,0,0,0,1.27-.3L266.1,49.46a2.84,2.84,0,0,0,1.57-2.54V20.83A2.84,2.84,0,0,0,264.83,18h-82A2.83,2.83,0,0,0,180,20.83v10a2.84,2.84,0,0,0,2.83,2.84H252V39ZM308.83,45A2.83,2.83,0,0,0,306,47.83v28a2.84,2.84,0,0,0,2.83,2.84h10a2.84,2.84,0,0,0,2.84-2.84v-28A2.84,2.84,0,0,0,318.83,45Zm-216,9A2.83,2.83,0,0,0,90,56.83v10a2.84,2.84,0,0,0,2.83,2.84h82a2.84,2.84,0,0,0,2.84-2.84v-10A2.84,2.84,0,0,0,174.83,54Zm0-36A2.83,2.83,0,0,0,90,20.83v10a2.84,2.84,0,0,0,2.83,2.84h82a2.84,2.84,0,0,0,2.84-2.84v-10A2.84,2.84,0,0,0,174.83,18Zm117-18A2.83,2.83,0,0,0,207,2.83v10a2.84,2.84,0,0,0,2.83,2.84h28a2.84,2.84,0,0,0,2.84-2.84v-10A2.84,2.84,0,0,0,237.83,0Z"/></svg>