<svg xmlns="http://www.w3.org/2000/svg" viewBox="0 0 523.91 86.54"><defs><style>.a{fill:#ffffff;}</style></defs><path class="a" d="M97.56,0H8.49A1.42,1.42,0,0,0,7.07,1.42v10a1.42,1.42,0,0,0,1.42,1.41H70L.42,82.42a1.41,1.41,0,0,0,1,2.41H90.49a1.42,1.42,0,0,0,1.42-1.41v-10A1.42,1.42,0,0,0,90.49,72H29L98.56,2.42A1.41,1.41,0,0,0,98.87.88,1.43,1.43,0,0,0,97.56,0Z"/><path class="a" d="M234.49,72H163.91V12.83h70.58a1.42,1.42,0,0,0,1.42-1.41v-10A1.42,1.42,0,0,0,234.49,0h-82a1.42,1.42,0,0,0-1.42,1.42v82a1.42,1.42,0,0,0,1.42,1.41h82a1.42,1.42,0,0,0,1.42-1.41v-10A1.42,1.42,0,0,0,234.49,72Z"/><path class="a" d="M522.49,0h-82a1.42,1.42,0,0,0-1.42,1.42v82a1.42,1.42,0,0,0,1.42,1.41h82a1.42,1.42,0,0,0,1.42-1.41v-82A1.42,1.42,0,0,0,522.49,0ZM451.91,72V12.83h59.16V72Z"/><path class="a" d="M380.83,74.91,343.91,56.45V48.83h34.58a1.42,1.42,0,0,0,1.42-1.41v-46A1.42,1.42,0,0,0,378.49,0h-82a1.42,1.42,0,0,0-1.42,1.42v10a1.42,1.42,0,0,0,1.42,1.41h70.58V36H170.49a1.42,1.42,0,0,0-1.42,1.42v10a1.42,1.42,0,0,0,1.42,1.41H331.07V63.51a1.42,1.42,0,0,0,.79,1.27l43.23,21.61a1.43,1.43,0,0,0,.64.15,1.31,1.31,0,0,0,.44-.07,1.4,1.4,0,0,0,.82-.71l4.47-8.94A1.42,1.42,0,0,0,380.83,74.91Z"/></svg>