<svg xmlns="http://www.w3.org/2000/svg" viewBox="0 0 390.33 129.33"><defs><style>.a{fill:#ffffff;}</style></defs><title>zero_sm</title><path class="a" d="M0,129.33V0H390.33V129.33ZM258.17,77.26a2.84,2.84,0,0,0-2,.83l-7.07,7.07a2.83,2.83,0,0,0,0,4l23,23a2.83,2.83,0,0,0,2,.83h97.08a2.83,2.83,0,0,0,2.83-2.83v-82a2.84,2.84,0,0,0-2.83-2.84h-82a2.84,2.84,0,0,0-2.84,2.84v64A2.84,2.84,0,0,0,289.17,95h10A2.83,2.83,0,0,0,302,92.17V41h56.33V97.33H279.41L260.17,78.09A2.83,2.83,0,0,0,258.17,77.26ZM17.9,81.54a2.84,2.84,0,0,0-1.57,2.54v26.09A2.84,2.84,0,0,0,19.17,113h172a2.83,2.83,0,0,0,2.83-2.83v-10a2.84,2.84,0,0,0-2.83-2.84H32V92l70.43-35.22A2.83,2.83,0,0,0,104,54.26V28.17a2.84,2.84,0,0,0-2.83-2.84h-82a2.84,2.84,0,0,0-2.84,2.84v28A2.84,2.84,0,0,0,19.17,59h10A2.83,2.83,0,0,0,32,56.17V41H88.33v5.32Zm178.29.85a2.84,2.84,0,0,0-1.27,3.81l4.47,8.94A2.87,2.87,0,0,0,201,96.56a2.79,2.79,0,0,0,.9.15,2.85,2.85,0,0,0,1.27-.3l79.23-39.62A2.83,2.83,0,0,0,284,54.26V28.17a2.84,2.84,0,0,0-2.83-2.84h-82a2.84,2.84,0,0,0-2.84,2.84v10A2.84,2.84,0,0,0,199.17,41h69.16v5.32Zm129-30.06a2.84,2.84,0,0,0-2.84,2.84v28A2.84,2.84,0,0,0,325.17,86h10A2.83,2.83,0,0,0,338,83.17v-28a2.84,2.84,0,0,0-2.83-2.84Zm-216,9a2.84,2.84,0,0,0-2.84,2.84v10A2.84,2.84,0,0,0,109.17,77h82A2.83,2.83,0,0,0,194,74.17v-10a2.84,2.84,0,0,0-2.83-2.84Zm0-36a2.84,2.84,0,0,0-2.84,2.84v10A2.84,2.84,0,0,0,109.17,41h82A2.83,2.83,0,0,0,194,38.17v-10a2.84,2.84,0,0,0-2.83-2.84Zm117-18a2.84,2.84,0,0,0-2.84,2.84v10A2.84,2.84,0,0,0,226.17,23h28A2.83,2.83,0,0,0,257,20.17v-10a2.84,2.84,0,0,0-2.83-2.84Z"/></svg>